<svg width="591" height="394" viewBox="0 0 591 394" fill="none" xmlns="http://www.w3.org/2000/svg">
<g id="main-illustration" clip-path="url(#clip0_7081_183)">
<g id="OBJECTS">
<g id="Group">
<path id="&#60;/&#62;" d="M247.981 240.279L254.745 243.02V244.938L246.738 241.229V240.103L247.981 240.279ZM254.745 238.028L247.991 240.808L246.738 240.945V239.809L254.745 236.109V238.028ZM263.916 232.605L257.975 248.08H256.418L262.37 232.605H263.916ZM272.794 240.671L265.835 237.959V236.09L274.194 239.79V240.935L272.794 240.671ZM265.835 243.059L272.814 240.289L274.194 240.083V241.219L265.835 244.929V243.059Z" fill="#EEF7FF"/>
</g>
<g id="Group_2">
<path id="Vector" d="M367.254 174.77C366.079 200.51 340.776 220.233 321.823 221.424C296.782 222.998 278.886 200.415 276.393 174.77C274.233 152.552 282.123 152.883 287.999 143.623C295.119 132.402 308.389 126.201 321.823 126.201C346.914 126.201 368.835 140.139 367.254 174.77Z" fill="#413F3F"/>
<path id="Vector_2" d="M339.43 219.021H304.218V263.104H339.43V219.021Z" fill="#E3B5AA"/>
<g id="Group_3">
<g id="Group_4">
<path id="Vector_3" d="M361.377 193.308C367.658 183.777 375.65 183.359 378.987 194.631C382.324 205.904 371.31 215.181 362.342 211.758C353.375 208.335 361.377 193.308 361.377 193.308Z" fill="#E3B5AA"/>
<path id="Vector_4" d="M368.792 193.557C372.999 192.787 375.156 205.323 365.929 205.737L367.826 201.363L366.046 197.724L368.792 193.557Z" fill="#D78F97"/>
<path id="Vector_5" d="M364.548 207.455C369.927 201.722 366.046 197.724 366.046 197.724C366.046 197.724 371.165 187.225 373.216 195.272" stroke="#C87E84" stroke-width="0.394" stroke-miterlimit="10"/>
</g>
</g>
<g id="Group_5">
<g id="Group_6">
<path id="Vector_6" d="M281.976 193.308C275.695 183.777 267.703 183.359 264.366 194.631C261.029 205.904 272.043 215.181 281.011 211.758C289.979 208.335 281.976 193.308 281.976 193.308Z" fill="#E3B5AA"/>
<path id="Vector_7" d="M274.561 193.557C270.354 192.787 268.197 205.323 277.425 205.737L275.527 201.363L277.308 197.724L274.561 193.557Z" fill="#D78F97"/>
<path id="Vector_8" d="M278.805 207.455C273.426 201.722 277.308 197.724 277.308 197.724C277.308 197.724 272.189 187.225 270.137 195.272" stroke="#C87E84" stroke-width="0.394" stroke-miterlimit="10"/>
</g>
</g>
<path id="Vector_9" d="M339.43 219.995V236.394C326.777 253.541 304.218 247.966 304.218 247.966L304.612 219.995H339.43V219.995Z" fill="#C87E84"/>
<path id="Vector_10" d="M321.823 238.787C300.802 238.787 283.763 221.746 283.763 200.726V172.913C283.763 158.716 295.272 147.206 309.47 147.206H334.177C348.375 147.206 359.884 158.716 359.884 172.913V200.726C359.883 221.746 342.844 238.787 321.823 238.787Z" fill="#E3B5AA"/>
<path id="Vector_11" d="M327.68 205.702C327.68 208.936 325.058 211.558 321.824 211.558C318.59 211.558 315.968 208.936 315.968 205.702" stroke="#4B3138" stroke-width="0.788" stroke-miterlimit="10"/>
<path id="Vector_12" d="M287.784 148.908C287.784 148.908 281.117 137.858 289.467 128.115C289.467 128.115 295.466 139.223 287.784 148.908Z" fill="#413F3F"/>
<path id="Vector_13" d="M291.17 146.284C291.17 146.284 281.887 155.25 270.526 149.285C270.526 149.285 280.014 140.958 291.17 146.284Z" fill="#413F3F"/>
<path id="Vector_14" d="M306.709 192.04C306.709 195.187 305.369 197.738 303.716 197.738C302.062 197.738 300.722 195.188 300.722 192.04C300.722 188.893 302.062 186.342 303.716 186.342C305.369 186.342 306.709 188.894 306.709 192.04Z" fill="#36364F"/>
<path id="Vector_15" d="M316.937 195.638C319.154 187.481 314.338 179.071 306.181 176.855C298.024 174.639 289.614 179.454 287.398 187.611C285.182 195.769 289.998 204.178 298.155 206.394C306.312 208.611 314.721 203.795 316.937 195.638Z" stroke="#4B3138" stroke-width="3.152" stroke-miterlimit="10"/>
<path id="Vector_16" d="M342.925 192.04C342.925 195.187 341.585 197.738 339.931 197.738C338.278 197.738 336.938 195.188 336.938 192.04C336.938 188.893 338.278 186.342 339.931 186.342C341.585 186.342 342.925 188.894 342.925 192.04Z" fill="#36364F"/>
<path id="Vector_17" d="M356.214 195.701C358.47 187.554 353.696 179.122 345.549 176.866C337.403 174.61 328.971 179.384 326.715 187.531C324.459 195.677 329.233 204.109 337.38 206.365C345.526 208.621 353.958 203.847 356.214 195.701Z" stroke="#4B3138" stroke-width="3.152" stroke-miterlimit="10"/>
<path id="Vector_18" d="M288.48 158.068C288.48 158.068 312.66 145.321 328.726 154.56C344.793 163.798 346.6 182.878 362.466 177.94C362.466 177.94 374.516 172.635 361.261 154.158C348.006 135.681 338.937 132.066 321.681 136.083C304.426 140.099 293.197 143.224 288.48 158.068Z" fill="#413F3F"/>
<path id="Vector_19" d="M287.555 157.885C287.555 157.885 295.537 147.302 306.709 144.505C317.882 141.708 330.239 155.45 330.239 155.45C330.239 155.45 301.613 151.369 287.555 157.885Z" fill="#413F3F"/>
<path id="Vector_20" d="M283.821 171.197C283.821 171.197 286.514 190.838 283.821 202.825C283.821 202.825 279.886 172.369 283.821 171.197Z" fill="#413F3F"/>
<path id="Vector_21" d="M359.608 171.197C359.608 171.197 356.915 190.838 359.608 202.825C359.608 202.825 363.543 172.369 359.608 171.197Z" fill="#413F3F"/>
<path id="Vector_22" d="M310.538 169.664C306.385 167.676 298.999 165.494 292.155 170.368C291.007 171.186 291.443 172.991 292.832 173.23C295.027 173.609 298.178 174.001 301.743 173.978C304.514 173.961 307.794 173.278 310.244 172.649C311.683 172.279 311.879 170.306 310.538 169.664Z" fill="#413F3F"/>
<path id="Vector_23" d="M350.644 169.664C346.491 167.676 339.105 165.494 332.261 170.368C331.114 171.186 331.549 172.991 332.938 173.23C335.133 173.609 338.284 174.001 341.849 173.978C344.62 173.961 347.9 173.278 350.349 172.649C351.789 172.279 351.985 170.306 350.644 169.664Z" fill="#413F3F"/>
<g id="Group_7">
<g id="Group_8">
<path id="Vector_24" d="M334.697 219.449C334.303 220.153 333.836 220.89 333.197 221.623C331.162 224.072 327.707 226.425 321.788 226.534L321.78 226.56L321.346 226.552L321.329 226.516C315.779 226.407 312.359 224.318 310.297 222.013C309.498 221.147 308.892 220.233 308.457 219.409C307.471 217.516 307.214 216.029 307.214 216.029L335.954 216.082C335.954 216.082 335.716 217.569 334.697 219.449Z" fill="#C33E5D"/>
</g>
<path id="Vector_25" d="M334.697 219.449C334.303 220.153 333.836 220.89 333.197 221.623C326.601 218.726 318.666 218.118 310.297 222.013C309.498 221.147 308.892 220.233 308.457 219.409C307.471 217.516 307.214 216.029 307.214 216.029L335.954 216.082C335.954 216.082 335.716 217.569 334.697 219.449Z" fill="#36364F"/>
</g>
<path id="Vector_26" d="M443.984 372.603L186.339 372.871C186.339 372.871 191.146 362.816 198.065 349.491C198.577 348.506 199.105 347.497 199.641 346.473C209.089 328.451 221.799 305.686 231.72 293.338C243.146 279.122 270.143 268.988 288.48 263.449C299.165 260.226 306.903 258.563 306.903 258.563H336.5C336.5 258.563 343.451 260.053 353.269 262.96C371.59 268.374 398.981 279.485 411.683 293.338C414.473 296.379 417.097 300.059 419.556 304.141C435.19 330.122 443.984 372.603 443.984 372.603Z" fill="#5FBDFF"/>
<path id="Vector_27" opacity="0.5" d="M443.984 372.603L186.339 372.87C186.339 372.87 191.146 362.816 198.065 349.491C326.635 387.285 394.389 325.348 409.85 308.582C412.346 305.875 415.813 304.244 419.493 304.143L419.556 304.141C435.19 330.121 443.984 372.603 443.984 372.603Z" fill="#5FBDFF"/>
<path id="Vector_28" d="M317.781 194.219H325.865" stroke="#4B3138" stroke-width="3.152" stroke-miterlimit="10"/>
<path id="Vector_29" d="M353.268 262.957C321.376 298.048 288.48 263.453 288.48 263.453C299.166 260.224 306.906 258.56 306.906 258.56H336.501C336.501 258.56 343.451 260.054 353.268 262.957Z" fill="#E3B5AA"/>
<g id="Group_9">
<path id="Vector_30" d="M251.405 332.901V372.919" stroke="#DC831E" stroke-width="2.364" stroke-miterlimit="10"/>
<path id="Vector_31" d="M251.405 358.407L240.66 344.708" stroke="#DC831E" stroke-width="2.364" stroke-miterlimit="10"/>
</g>
<g id="Group_10">
<path id="Vector_32" d="M391.513 332.901V372.919" stroke="#6C92AC" stroke-width="2.364" stroke-miterlimit="10"/>
<path id="Vector_33" d="M391.513 358.407L401.053 346.242" stroke="#6C92AC" stroke-width="2.364" stroke-miterlimit="10"/>
</g>
<path id="Vector_34" d="M286.953 278.683C286.953 278.683 326.497 305.689 353.268 277.371" stroke="#86AAC4" stroke-width="2.364" stroke-miterlimit="10"/>
<path id="H" d="M358.462 327.239V307.544H360.89V315.961H367.203V307.544H369.631V327.239H367.203V318.174H360.89V327.239H358.462Z" fill="white"/>
<path id="Vector_35" d="M287.562 141.519C296.442 104.2 385.397 108.306 368.844 180.965C363.886 202.73 327.631 131.49 296.342 148.967C294.003 150.274 291.088 149.936 289.132 148.105C287.336 146.422 286.993 143.913 287.562 141.519Z" fill="#413F3F"/>
</g>
<g id="Group_11">
<g id="Group_12">
<path id="Vector_36" d="M336.422 372.626C336.398 372.634 336.366 372.642 336.335 372.642C336.122 372.666 335.901 372.673 335.681 372.673H163.117C160.824 372.673 158.783 371.61 157.451 369.939C156.458 368.702 155.867 367.126 155.867 365.416L155.843 365.337L128.973 289.413C126.916 283.614 131.218 277.522 137.373 277.522H249.411C253.193 277.522 256.558 279.902 257.819 283.464L286.778 365.274C286.809 365.369 286.825 365.416 286.825 365.416H335.846C340.346 365.417 340.842 372.146 336.422 372.626Z" fill="#80ABBD"/>
<path id="Vector_37" d="M207.729 323.357C210.562 331.595 207.359 340.165 200.573 342.499C193.789 344.832 185.992 340.046 183.159 331.807C180.326 323.569 183.529 314.999 190.315 312.666C197.099 310.332 204.896 315.119 207.729 323.357Z" fill="white"/>
<path id="Vector_38" d="M335.848 365.415H286.824C286.824 365.415 286.81 365.366 286.781 365.273L257.818 283.462C256.555 279.902 253.193 277.525 249.412 277.525H245.667C245.667 277.525 254.037 278.071 256.13 285.562C258.223 293.045 286.824 372.515 286.824 372.515L288.938 372.671H335.678C335.905 372.671 336.125 372.664 336.338 372.643C340.848 372.232 340.373 365.415 335.848 365.415Z" fill="#4B7195"/>
</g>
<path id="Vector_39" opacity="0.4" d="M336.421 372.626C336.398 372.634 336.366 372.642 336.335 372.642C336.122 372.666 335.901 372.673 335.681 372.673H163.117C160.824 372.673 158.783 371.61 157.451 369.939C259.45 378.702 249.411 277.522 249.411 277.522C253.193 277.522 256.558 279.902 257.818 283.464L286.777 365.274C286.809 365.369 286.825 365.416 286.825 365.416H335.074C335.594 367.804 336.051 370.207 336.421 372.626Z" fill="#5A93A0"/>
</g>
<g id="Group_13">
<g id="Group_14">
<g id="Group_15">
<g id="Group_16">
<path id="Vector_40" d="M131.228 322.553V325.093C126.637 325.617 125.514 329.501 125.514 334.225V335.788C125.514 340.514 126.638 344.396 131.228 344.921V347.448H43.4527C39.8507 347.448 36.9327 344.53 36.9327 340.928V329.085C36.9327 325.483 39.8507 322.552 43.4527 322.552H131.228V322.553Z" fill="#4B7195"/>
<path id="Vector_41" d="M129.861 342.32C130.386 343.566 129.421 344.921 128.078 344.921L44.1981 344.982V325.031L128.078 325.092C128.567 325.092 129.007 325.274 129.336 325.568C129.922 326.056 130.19 326.899 129.861 327.692C129.165 329.352 129.189 331.66 129.189 334.224V335.786C129.189 338.352 129.164 340.66 129.861 342.32Z" fill="white"/>
<path id="Vector_42" opacity="0.4" d="M129.335 325.569C127.724 325.654 53.5989 329.489 48.5194 336.692C47.1397 338.645 45.5771 339.732 44.1973 339.952V325.032L128.078 325.092C128.566 325.092 129.006 325.276 129.335 325.569Z" fill="#A3D5E6"/>
</g>
<path id="Vector_43" d="M48.5195 347.454H41.1438C38.8184 347.454 36.9327 345.569 36.9327 343.243V326.77C36.9327 324.444 38.8176 322.559 41.1438 322.559H48.5195V347.454Z" fill="#4B7195"/>
<path id="Vector_44" opacity="0.4" d="M129.861 342.321C130.386 343.566 129.421 344.921 128.078 344.921L111.333 344.934C124.636 343.421 123.804 332.492 123.804 332.492C123.951 331.967 113.292 325.557 113.476 325.081L128.078 325.093C128.567 325.093 129.007 325.276 129.336 325.569C129.922 326.058 130.19 326.9 129.861 327.694C129.165 329.354 129.189 331.662 129.189 334.226V335.789C129.189 338.352 129.164 340.66 129.861 342.321Z" fill="#A3D5E6"/>
</g>
<g id="Group_17">
<path id="Vector_45" opacity="0.4" d="M129.189 333.551H48.6621V335.349H129.189V333.551Z" fill="#A3D5E6"/>
<path id="Vector_46" opacity="0.4" d="M129.189 329.501H48.6621V331.3H129.189V329.501Z" fill="#A3D5E6"/>
<path id="Vector_47" opacity="0.4" d="M129.189 338.702H48.6621V340.5H129.189V338.702Z" fill="#A3D5E6"/>
</g>
<path id="Vector_48" d="M103.251 341.258L98.9696 336.987L94.6876 341.258V329.501H103.251V341.258Z" fill="#FF0000"/>
</g>
<g id="Group_18">
<g id="Group_19">
<g id="Group_20">
<path id="Vector_49" d="M140.617 347.364V349.904C136.026 350.428 134.903 354.311 134.903 359.036V360.599C134.903 365.324 136.027 369.207 140.617 369.732V372.259H52.8417C49.2397 372.259 46.3218 369.341 46.3218 365.739V353.896C46.3218 350.294 49.2397 347.364 52.8417 347.364H140.617Z" fill="#C33E5D"/>
<path id="Vector_50" d="M139.249 367.132C139.774 368.377 138.809 369.732 137.467 369.732L53.5863 369.793V349.842L137.467 349.904C137.955 349.904 138.395 350.086 138.724 350.379C139.31 350.868 139.579 351.71 139.249 352.504C138.553 354.164 138.578 356.472 138.578 359.036V360.598C138.578 363.163 138.553 365.471 139.249 367.132Z" fill="white"/>
<path id="Vector_51" opacity="0.4" d="M138.724 350.38C137.113 350.465 62.9879 354.3 57.9085 361.504C56.5287 363.457 54.9661 364.544 53.5863 364.764V349.844L137.467 349.905C137.955 349.903 138.395 350.087 138.724 350.38Z" fill="#A3D5E6"/>
</g>
<path id="Vector_52" d="M57.9085 372.265H50.5328C48.2075 372.265 46.3218 370.38 46.3218 368.054V351.581C46.3218 349.255 48.2067 347.37 50.5328 347.37H57.9085V372.265Z" fill="#C33E5D"/>
<path id="Vector_53" opacity="0.4" d="M139.249 367.131C139.774 368.377 138.809 369.732 137.467 369.732L120.722 369.744C134.024 368.232 133.192 357.303 133.192 357.303C133.339 356.778 122.681 350.368 122.864 349.892L137.467 349.904C137.955 349.904 138.395 350.087 138.724 350.38C139.31 350.869 139.579 351.711 139.249 352.505C138.553 354.165 138.578 356.473 138.578 359.036V360.599C138.578 363.163 138.553 365.471 139.249 367.131Z" fill="#A3D5E6"/>
</g>
<g id="Group_21">
<path id="Vector_54" opacity="0.4" d="M138.578 358.362H58.0511V360.16H138.578V358.362Z" fill="#A3D5E6"/>
<path id="Vector_55" opacity="0.4" d="M138.578 354.312H58.0511V356.11H138.578V354.312Z" fill="#A3D5E6"/>
<path id="Vector_56" opacity="0.4" d="M138.578 363.513H58.0511V365.311H138.578V363.513Z" fill="#A3D5E6"/>
</g>
<path id="Vector_57" d="M129.769 367.633L125.245 363.121L120.722 367.633V355.211H129.769V367.633Z" fill="#FF0000"/>
</g>
</g>
<g id="Group_22">
<path id="Vector_58" d="M565.667 383.076V384.896C565.667 390.46 561.151 394.967 555.588 394.967H40.2045C35.5159 394.967 31.5759 391.768 30.4491 387.442C30.4491 387.434 30.4491 387.426 30.4412 387.418C30.2363 386.606 30.126 385.763 30.126 384.896V383.076C30.126 377.513 34.6333 373.005 40.2045 373.005H555.588C561.151 373.005 565.667 377.513 565.667 383.076Z" fill="#47547C"/>
<path id="Vector_59" opacity="0.5" d="M565.667 383.076V384.896C565.667 390.46 561.151 394.967 555.588 394.967H40.2045C35.5159 394.967 31.5759 391.768 30.4491 387.442C30.4491 387.434 30.4491 387.426 30.4412 387.418C30.2284 385.802 30.126 384.896 30.126 384.896C319.128 394.967 555.588 373.005 555.588 373.005C561.151 373.005 565.667 377.513 565.667 383.076Z" fill="#2B2B3F"/>
</g>
<g id="Group_23">
<g id="disc-1">
<path id="Vector_60" d="M552.813 106.956C552.813 106.891 552.822 106.833 552.822 106.768C552.822 106.702 552.813 106.645 552.813 106.587C553.757 106.153 554.708 105.653 555.643 105.046C556.643 104.357 557.66 103.561 558.604 102.651L558.399 101.847C558.202 100.937 557.85 100.059 557.53 99.1824C557.349 98.7561 557.136 98.3376 556.931 97.9192C556.742 97.4842 556.512 97.0824 556.259 96.6891L555.832 95.9839C554.545 95.9918 553.24 96.1564 552.051 96.3771C550.977 96.5985 549.936 96.9184 548.968 97.2872L548.706 97.0248C549.066 96.0485 549.394 95.0154 549.608 93.9414C549.837 92.7523 550.001 91.4481 550.01 90.1606L549.304 89.7342C548.91 89.4797 548.501 89.2504 548.074 89.0621C547.656 88.8572 547.238 88.6437 546.803 88.4632C545.926 88.1433 545.056 87.791 544.146 87.594L543.342 87.3892C542.432 88.3324 541.636 89.341 540.948 90.3497C540.341 91.2764 539.841 92.2275 539.406 93.1786C539.349 93.1786 539.283 93.162 539.226 93.162C539.16 93.162 539.102 93.1786 539.038 93.1786C538.611 92.2275 538.102 91.2764 537.495 90.3497C536.815 89.341 536.012 88.3324 535.109 87.3892L534.306 87.594C533.387 87.791 532.518 88.1433 531.641 88.4632C531.214 88.6437 530.796 88.8572 530.37 89.0621C529.943 89.2504 529.541 89.4805 529.14 89.7342L528.434 90.1606C528.451 91.4481 528.615 92.7523 528.836 93.9414C529.058 95.0154 529.377 96.0485 529.746 97.0248C529.656 97.1147 529.566 97.1966 529.484 97.2872C528.508 96.9184 527.474 96.5985 526.4 96.3771C525.211 96.1557 523.899 95.9918 522.62 95.9839L522.185 96.6891C521.939 97.0831 521.709 97.485 521.512 97.9192C521.315 98.3376 521.103 98.7553 520.921 99.1824C520.594 100.06 520.249 100.937 520.052 101.847L519.847 102.651C520.791 103.561 521.799 104.357 522.808 105.046C523.735 105.653 524.686 106.153 525.629 106.587C525.629 106.645 525.621 106.702 525.621 106.768C525.621 106.833 525.629 106.891 525.629 106.956C524.686 107.382 523.735 107.891 522.808 108.498C521.799 109.179 520.791 109.982 519.847 110.884L520.052 111.688C520.249 112.598 520.594 113.476 520.921 114.353C521.102 114.779 521.315 115.198 521.512 115.624C521.709 116.05 521.939 116.452 522.185 116.846L522.62 117.551C523.899 117.544 525.211 117.379 526.4 117.157C527.474 116.936 528.508 116.616 529.484 116.247C529.566 116.337 529.656 116.428 529.746 116.51C529.377 117.485 529.057 118.519 528.836 119.593C528.615 120.782 528.451 122.094 528.434 123.374L529.14 123.808C529.541 124.054 529.943 124.284 530.37 124.472C530.796 124.677 531.214 124.891 531.641 125.071C532.518 125.399 533.388 125.743 534.306 125.94L535.109 126.145C536.012 125.202 536.815 124.193 537.495 123.185C538.103 122.258 538.611 121.307 539.038 120.356C539.103 120.364 539.16 120.372 539.226 120.372C539.283 120.372 539.349 120.365 539.406 120.356C539.841 121.307 540.342 122.259 540.948 123.185C541.637 124.193 542.432 125.202 543.342 126.145L544.146 125.94C545.056 125.743 545.925 125.399 546.803 125.071C547.238 124.891 547.656 124.677 548.074 124.472C548.501 124.284 548.911 124.054 549.304 123.808L550.01 123.374C550.001 122.094 549.837 120.782 549.608 119.593C549.394 118.519 549.066 117.485 548.706 116.51C548.795 116.428 548.878 116.337 548.968 116.247C549.936 116.616 550.977 116.936 552.051 117.157C553.24 117.379 554.545 117.543 555.832 117.551L556.259 116.846C556.513 116.452 556.742 116.051 556.931 115.624C557.136 115.198 557.349 114.779 557.53 114.353C557.85 113.476 558.202 112.598 558.399 111.688L558.604 110.884C557.66 109.982 556.644 109.178 555.643 108.498C554.708 107.891 553.757 107.382 552.813 106.956ZM539.224 113.27C535.633 113.27 532.721 110.359 532.721 106.767C532.721 103.175 535.633 100.264 539.224 100.264C542.816 100.264 545.727 103.175 545.727 106.767C545.728 110.359 542.816 113.27 539.224 113.27Z" fill="#FFDE4D"/>
</g>
<g id="dotted-line-3">
<path id="Vector_61" d="M520.583 116.804H476.701V160.02H488.886" stroke="#FFDE4D" stroke-width="0.788" stroke-miterlimit="10" stroke-dasharray="3.15 3.15"/>
</g>
<g id="Group_24">
<path id="Vector_62" d="M514.055 183.15H489.93V187.461H514.055V183.15Z" fill="#F9EFE7"/>
<path id="Vector_63" d="M527.019 191.127H489.93V195.439H527.019V191.127Z" fill="#F9EFE7"/>
<path id="Vector_64" d="M502.563 199.104H489.93V203.416H502.563V199.104Z" fill="#F9EFE7"/>
<path id="Vector_65" d="M520.351 199.104H507.719V203.416H520.351V199.104Z" fill="#00C7BE"/>
<path id="Vector_66" d="M543.011 199.104H524.871V203.416H543.011V199.104Z" fill="#00C7BE"/>
<path id="Vector_67" d="M543.011 191.127H531.996V195.439H543.011V191.127Z" fill="#00C7BE"/>
<path id="Vector_68" d="M543.011 183.15H518.887V187.461H543.011V183.15Z" fill="#00C7BE"/>
</g>
<path id="Vector_69" d="M551.849 155.229H551.044V203.284H551.849V155.229Z" fill="#EEF7FF"/>
</g>
<g id="Group_25">
<path id="Vector_70" d="M515.112 156.995H490.305V161.428H515.112V156.995Z" fill="#F9EFE7"/>
<path id="Vector_71" d="M528.444 165.197H490.305V169.631H528.444V165.197Z" fill="#F9EFE7"/>
<path id="Vector_72" d="M503.295 173.399H490.305V177.833H503.295V173.399Z" fill="#F9EFE7"/>
<path id="Vector_73" d="M521.587 173.399H508.596V177.833H521.587V173.399Z" fill="#00C7BE"/>
<path id="Vector_74" d="M544.889 173.399H526.235V177.833H544.889V173.399Z" fill="#00C7BE"/>
<path id="Vector_75" d="M544.889 165.197H533.561V169.631H544.889V165.197Z" fill="#00C7BE"/>
<path id="Vector_76" d="M544.888 156.995H520.081V161.428H544.888V156.995Z" fill="#00C7BE"/>
</g>
<g id="Group_26">
<g id="Group_27">
<path id="Vector_77" d="M457.171 74.3643H389.786C388.681 74.3643 387.786 75.2597 387.786 76.3643V212.644C387.786 213.749 388.681 214.644 389.786 214.644H457.171C458.276 214.644 459.171 213.749 459.171 212.644V76.3643C459.171 75.2597 458.276 74.3643 457.171 74.3643Z" fill="#7D7B91"/>
<path id="Vector_78" d="M449.515 104.199H395.918V109.892H449.515V104.199Z" fill="#EEF7FF"/>
<path id="Vector_79" d="M431.391 116.804H395.918V122.497H431.391V116.804Z" fill="#EEF7FF"/>
<path id="Vector_80" d="M449.515 116.804H436.659V122.497H449.515V116.804Z" fill="#FFCC00"/>
<path id="Vector_81" d="M449.515 129.409H416.301V135.102H449.515V129.409Z" fill="#FFCC00"/>
<path id="Vector_82" d="M411.473 129.409H395.918V135.102H411.473V129.409Z" fill="#EEF7FF"/>
<path id="Vector_83" d="M424.248 142.014H395.918V147.707H424.248V142.014Z" fill="#EEF7FF"/>
<path id="Vector_84" d="M449.514 142.014H428.611V147.707H449.514V142.014Z" fill="#FFCC00"/>
<path id="Vector_85" d="M449.514 154.619H411.472V160.311H449.514V154.619Z" fill="#FFCC00"/>
<path id="Vector_86" d="M407.417 154.619H395.918V160.311H407.417V154.619Z" fill="#EEF7FF"/>
<path id="Vector_87" d="M418.917 167.224H395.918V172.916H418.917V167.224Z" fill="#EEF7FF"/>
<path id="Vector_88" d="M449.515 167.224H422.716V172.916H449.515V167.224Z" fill="#FFCC00"/>
<g id="Group_28">
<g id="Group_29">
<path id="Vector_89" d="M447.931 200.817V202.419L442.065 204.65V203.109L446.169 201.617L442.065 200.114V198.586L447.931 200.817Z" fill="#007AFF"/>
</g>
<g id="Group_30">
<path id="Vector_90" d="M431.253 198.586V200.114L427.15 201.617L431.253 203.109V204.65L425.388 202.419V200.817L431.253 198.586Z" fill="#007AFF"/>
</g>
<g id="Group_31">
<path id="Vector_91" d="M438.188 194.268H440.023L435.666 206.704H433.832L438.188 194.268Z" fill="#007AFF"/>
</g>
</g>
<g id="Group_32">
<g id="Group_33">
<path id="Vector_92" d="M420.995 91.3409V93.4409L413.307 96.3644V94.3455L418.686 92.3913L413.307 90.4213V88.4182L420.995 91.3409Z" fill="#007AFF"/>
</g>
<g id="Group_34">
<path id="Vector_93" d="M406.858 88.4175V90.4206L401.48 92.3906L406.858 94.3448V96.3637L399.171 93.4402V91.3402L406.858 88.4175Z" fill="#007AFF"/>
</g>
</g>
</g>
<path id="HTML" d="M389.599 63.4146V52.8148H390.906V57.3451H394.303V52.8148H395.61V63.4146H394.303V58.5357H390.906V63.4146H389.599ZM400.658 63.4146V53.9909H397.753V52.8003H404.868V53.9909H401.964V63.4146H400.658ZM406.765 63.4146V52.8148H408.478L409.582 56.2416C409.688 56.5513 409.785 56.8611 409.872 57.1708C409.959 57.4709 410.022 57.7033 410.061 57.8678C410.109 57.7033 410.172 57.4709 410.25 57.1708C410.327 56.8611 410.414 56.5465 410.511 56.227L411.557 52.8148H413.27V63.4146H411.992V59.5667C411.992 59.1408 412.007 58.6568 412.036 58.1147C412.065 57.5726 412.104 57.0208 412.152 56.4594C412.2 55.8882 412.249 55.3461 412.297 54.8331C412.355 54.3104 412.404 53.8554 412.442 53.4682L410.729 58.7681H409.349L407.622 53.4682C407.67 53.8457 407.718 54.2862 407.767 54.7895C407.815 55.2832 407.859 55.8108 407.897 56.3722C407.936 56.924 407.97 57.4758 407.999 58.0275C408.028 58.5793 408.043 59.0924 408.043 59.5667V63.4146H406.765ZM416.038 63.4146V52.8148H417.344V62.2239H422.136V63.4146H416.038Z" fill="#EEF7FF"/>
</g>
<g id="Group_35">
<g id="Group_36">
<g id="dotted-line-1">
<path id="Vector_94" d="M46.3218 248.783V250.359" stroke="#FFDE4D" stroke-width="0.788" stroke-miterlimit="10"/>
<path id="Vector_95" d="M46.3218 253.375V275.995" stroke="#FFDE4D" stroke-width="0.788" stroke-miterlimit="10" stroke-dasharray="3.02 3.02"/>
<path id="Vector_96" d="M46.3218 277.504V279.08H47.8978" stroke="#FFDE4D" stroke-width="0.788" stroke-miterlimit="10"/>
<path id="Vector_97" d="M51.1412 279.08H94.9225" stroke="#FFDE4D" stroke-width="0.788" stroke-miterlimit="10" stroke-dasharray="3.24 3.24"/>
<path id="Vector_98" d="M96.5442 279.08H98.1202V277.504" stroke="#FFDE4D" stroke-width="0.788" stroke-miterlimit="10"/>
<path id="Vector_99" d="M98.1201 274.435V251.416" stroke="#FFDE4D" stroke-width="0.788" stroke-miterlimit="10" stroke-dasharray="3.07 3.07"/>
<path id="Vector_100" d="M98.1201 249.882V248.306" stroke="#FFDE4D" stroke-width="0.788" stroke-miterlimit="10"/>
</g>
</g>
<g id="Group_37">
<path id="Vector_101" d="M229.18 65.6382H81.2161C80.1115 65.6382 79.2161 66.5336 79.2161 67.6382V244.814C79.2161 245.918 80.1115 246.814 81.2161 246.814H229.18C230.285 246.814 231.18 245.918 231.18 244.814V67.6382C231.18 66.5336 230.285 65.6382 229.18 65.6382Z" fill="#7D7B91"/>
<path id="Vector_102" d="M229.18 56.8125H81.2161C80.1115 56.8125 79.2161 57.7079 79.2161 58.8125V77.8071C79.2161 78.9117 80.1115 79.8071 81.2161 79.8071H229.18C230.285 79.8071 231.18 78.9117 231.18 77.8071V58.8125C231.18 57.7079 230.285 56.8125 229.18 56.8125Z" fill="#64648E"/>
<g id="Group_38">
<g id="Group_39">
<path id="Vector_103" d="M213.595 234.351V235.844L208.13 237.922V236.487L211.954 235.097L208.13 233.697V232.273L213.595 234.351Z" fill="#FFE872"/>
</g>
<g id="Group_40">
<path id="Vector_104" d="M198.058 232.273V233.697L194.235 235.097L198.058 236.487V237.922L192.594 235.844V234.351L198.058 232.273Z" fill="#FFE872"/>
</g>
<path id="/" d="M205.581 228.558L201.935 238.055H200.98L204.632 228.558H205.581Z" fill="#FFE872"/>
</g>
<g id="Group_41">
<g id="Group_42">
<path id="Vector_105" d="M115.225 94.4662V96.3274L108.411 98.9184V97.1288L113.178 95.3968L108.411 93.6506V91.8752L115.225 94.4662Z" fill="#FFE872"/>
</g>
<g id="Group_43">
<path id="Vector_106" d="M102.694 91.8745V93.6499L97.9264 95.3961L102.694 97.1281V98.9177L95.8792 96.3267V94.4655L102.694 91.8745Z" fill="#FFE872"/>
</g>
</g>
<path id="WEB DEVELOPMENT" d="M119.189 73L118.273 65.0365H119.211L119.811 70.9273C119.825 71.0873 119.84 71.2546 119.855 71.4291C119.869 71.5964 119.88 71.7564 119.887 71.9091C119.902 72.0618 119.909 72.1891 119.909 72.2909C119.924 72.1891 119.935 72.0618 119.942 71.9091C119.956 71.7564 119.971 71.5964 119.985 71.4291C120.007 71.2546 120.029 71.0873 120.051 70.9273L120.793 65.0365H121.807L122.484 70.9273C122.505 71.0873 122.524 71.2546 122.538 71.4291C122.56 71.5964 122.578 71.7564 122.593 71.9091C122.614 72.0618 122.629 72.1891 122.636 72.2909C122.644 72.1891 122.651 72.0618 122.658 71.9091C122.673 71.7564 122.687 71.5964 122.702 71.4291C122.724 71.2546 122.742 71.0873 122.756 70.9273L123.378 65.0365H124.273L123.334 73H122.102L121.425 67.0001C121.411 66.8328 121.393 66.6692 121.371 66.5092C121.356 66.3492 121.342 66.2001 121.327 66.0619C121.313 65.9238 121.302 65.811 121.294 65.7238C121.287 65.811 121.273 65.9238 121.251 66.0619C121.236 66.2001 121.222 66.3492 121.207 66.5092C121.193 66.6692 121.174 66.8328 121.153 67.0001L120.422 73H119.189ZM125.632 73V65.0365H130.214V65.931H126.603V68.3964H129.832V69.2801H126.603V72.1055H130.214V73H125.632ZM132.097 73V65.0365H134.355C135.082 65.0365 135.649 65.2183 136.057 65.5819C136.471 65.9456 136.678 66.451 136.678 67.0983C136.678 67.4619 136.602 67.7783 136.449 68.0474C136.297 68.3164 136.078 68.5237 135.795 68.6692C135.518 68.8146 135.184 68.8837 134.791 68.8764V68.7128C135.213 68.7055 135.577 68.7855 135.882 68.9528C136.195 69.1201 136.435 69.3601 136.602 69.6728C136.777 69.9855 136.864 70.3564 136.864 70.7855C136.864 71.2364 136.769 71.6291 136.58 71.9637C136.391 72.2982 136.122 72.5564 135.773 72.7382C135.424 72.9127 135.006 73 134.518 73H132.097ZM133.057 72.1164H134.409C134.868 72.1164 135.228 71.9964 135.489 71.7564C135.758 71.5091 135.893 71.1746 135.893 70.7528C135.893 70.3164 135.758 69.9637 135.489 69.6946C135.228 69.4182 134.868 69.2801 134.409 69.2801H133.057V72.1164ZM133.057 68.4292H134.344C134.766 68.4292 135.097 68.3164 135.337 68.091C135.584 67.8655 135.708 67.5601 135.708 67.1746C135.708 66.7892 135.588 66.4837 135.348 66.2583C135.108 66.0328 134.777 65.9201 134.355 65.9201H133.057V68.4292ZM145.168 73V65.0365H147.23C147.746 65.0365 148.19 65.1347 148.561 65.331C148.939 65.5274 149.23 65.8038 149.433 66.1601C149.644 66.5165 149.75 66.9383 149.75 67.4255V70.6C149.75 71.0873 149.644 71.5128 149.433 71.8764C149.23 72.2327 148.939 72.5091 148.561 72.7055C148.19 72.9018 147.746 73 147.23 73H145.168ZM146.15 72.1273H147.23C147.71 72.1273 148.084 71.9927 148.353 71.7237C148.63 71.4546 148.768 71.08 148.768 70.6V67.4255C148.768 66.9528 148.63 66.5819 148.353 66.3128C148.084 66.0437 147.71 65.9092 147.23 65.9092H146.15V72.1273ZM151.796 73V65.0365H156.378V65.931H152.767V68.3964H155.996V69.2801H152.767V72.1055H156.378V73H151.796ZM159.843 73L157.792 65.0365H158.806L160.159 70.4473C160.254 70.8255 160.334 71.1782 160.399 71.5055C160.465 71.8255 160.512 72.0691 160.541 72.2364C160.57 72.0691 160.614 71.8255 160.672 71.5055C160.737 71.1782 160.817 70.8255 160.912 70.4473L162.254 65.0365H163.246L161.185 73H159.843ZM164.879 73V65.0365H169.46V65.931H165.849V68.3964H169.078V69.2801H165.849V72.1055H169.46V73H164.879ZM171.583 73V65.0365H172.565V72.1055H176.165V73H171.583ZM180.142 73.1091C179.662 73.1091 179.248 73.0182 178.899 72.8364C178.557 72.6546 178.292 72.3927 178.102 72.0509C177.921 71.7018 177.83 71.2909 177.83 70.8182V67.2183C177.83 66.7383 177.921 66.3274 178.102 65.9856C178.292 65.6438 178.557 65.3819 178.899 65.2001C179.248 65.0183 179.662 64.9274 180.142 64.9274C180.622 64.9274 181.033 65.0183 181.375 65.2001C181.724 65.3819 181.99 65.6438 182.172 65.9856C182.361 66.3274 182.455 66.7346 182.455 67.2074V70.8182C182.455 71.2909 182.361 71.7018 182.172 72.0509C181.99 72.3927 181.724 72.6546 181.375 72.8364C181.033 73.0182 180.622 73.1091 180.142 73.1091ZM180.142 72.2255C180.572 72.2255 180.899 72.1055 181.124 71.8655C181.357 71.6182 181.473 71.2691 181.473 70.8182V67.2183C181.473 66.7674 181.357 66.4219 181.124 66.1819C180.899 65.9347 180.572 65.811 180.142 65.811C179.721 65.811 179.393 65.9347 179.161 66.1819C178.928 66.4219 178.812 66.7674 178.812 67.2183V70.8182C178.812 71.2691 178.928 71.6182 179.161 71.8655C179.393 72.1055 179.721 72.2255 180.142 72.2255ZM184.414 73V65.0365H186.978C187.473 65.0365 187.902 65.1347 188.265 65.331C188.629 65.5201 188.909 65.7892 189.105 66.1383C189.309 66.4874 189.411 66.9019 189.411 67.3819C189.411 67.8546 189.309 68.2692 189.105 68.6255C188.909 68.9746 188.629 69.2473 188.265 69.4437C187.902 69.6328 187.473 69.7273 186.978 69.7273H185.396V73H184.414ZM185.396 68.8437H186.978C187.407 68.8437 187.749 68.7128 188.004 68.451C188.265 68.1819 188.396 67.8255 188.396 67.3819C188.396 66.931 188.265 66.5746 188.004 66.3128C187.749 66.051 187.407 65.9201 186.978 65.9201H185.396V68.8437ZM190.781 73V65.0365H192.068L192.897 67.611C192.977 67.8437 193.05 68.0764 193.116 68.3092C193.181 68.5346 193.228 68.7092 193.257 68.8328C193.294 68.7092 193.341 68.5346 193.399 68.3092C193.457 68.0764 193.523 67.8401 193.596 67.6001L194.381 65.0365H195.668V73H194.708V70.1091C194.708 69.7891 194.719 69.4255 194.741 69.0182C194.763 68.611 194.792 68.1964 194.828 67.7746C194.865 67.3455 194.901 66.9383 194.937 66.5528C194.981 66.1601 195.017 65.8183 195.046 65.5274L193.759 69.5091H192.723L191.425 65.5274C191.461 65.811 191.497 66.1419 191.534 66.5201C191.57 66.891 191.603 67.2874 191.632 67.7092C191.661 68.1237 191.686 68.5383 191.708 68.9528C191.73 69.3673 191.741 69.7528 191.741 70.1091V73H190.781ZM197.584 73V65.0365H202.166V65.931H198.555V68.3964H201.784V69.2801H198.555V72.1055H202.166V73H197.584ZM204.016 73V65.0365H205.325L207.758 71.8546C207.743 71.6727 207.725 71.4509 207.703 71.1891C207.689 70.92 207.674 70.64 207.66 70.3491C207.652 70.051 207.649 69.771 207.649 69.5091V65.0365H208.598V73H207.289L204.867 66.1819C204.881 66.3565 204.896 66.5783 204.91 66.8474C204.925 67.1092 204.936 67.3892 204.943 67.6874C204.958 67.9783 204.965 68.2583 204.965 68.5273V73H204.016ZM212.357 73V65.9201H210.175V65.0256H215.521V65.9201H213.339V73H212.357Z" fill="#EEF7FF"/>
<g id="Group_44">
<g id="Group_45">
<path id="Vector_107" d="M150.157 109.969H105.488V118.149H150.157V109.969Z" fill="#32ADE6"/>
<path id="Vector_108" d="M178.786 109.969H156.451V118.149H178.786V109.969Z" fill="#FFCC00"/>
<path id="Vector_109" d="M214.692 109.969H183.93V118.149H214.692V109.969Z" fill="#EEF7FF"/>
<path id="Vector_110" d="M126.336 124.573H105.488V132.753H126.336V124.573Z" fill="#32ADE6"/>
<path id="Vector_111" d="M167.619 124.573H132.009V132.753H167.619V124.573Z" fill="#FFCC00"/>
<path id="Vector_112" d="M214.692 124.573H173.422V132.753H214.692V124.573Z" fill="#EEF7FF"/>
<path id="Vector_113" d="M132.931 139.178H105.488V147.358H132.931V139.178Z" fill="#32ADE6"/>
<path id="Vector_114" d="M189.022 139.178H137.398V147.358H189.022V139.178Z" fill="#FFCC00"/>
<path id="Vector_115" d="M214.692 139.178H194.553V147.358H214.692V139.178Z" fill="#EEF7FF"/>
<path id="Vector_116" d="M140.093 153.783H105.488V161.963H140.093V153.783Z" fill="#32ADE6"/>
<path id="Vector_117" d="M178.786 153.783H145.198V161.963H178.786V153.783Z" fill="#FFCC00"/>
<path id="Vector_118" d="M214.692 153.783H183.93V161.963H214.692V153.783Z" fill="#EEF7FF"/>
<path id="Vector_119" d="M120.663 168.388H105.488V176.568H120.663V168.388Z" fill="#32ADE6"/>
<path id="Vector_120" d="M155.835 168.388H125.769V176.568H155.835V168.388Z" fill="#FFCC00"/>
<path id="Vector_121" d="M214.692 168.388H160.516V176.568H214.692V168.388Z" fill="#EEF7FF"/>
<path id="Vector_122" d="M148.886 182.992H105.488V191.173H148.886V182.992Z" fill="#32ADE6"/>
<path id="Vector_123" d="M167.619 182.992H154.276V191.173H167.619V182.992Z" fill="#FFCC00"/>
<path id="Vector_124" d="M214.692 182.992H173.422V191.173H214.692V182.992Z" fill="#EEF7FF"/>
<path id="Vector_125" d="M161.992 197.597H105.488V205.777H161.992V197.597Z" fill="#32ADE6"/>
<path id="Vector_126" d="M189.873 197.597H166.756V205.777H189.873V197.597Z" fill="#FFCC00"/>
<path id="Vector_127" d="M214.692 197.597H194.553V205.777H214.692V197.597Z" fill="#EEF7FF"/>
<path id="Vector_128" d="M122.79 212.202H105.488V220.382H122.79V212.202Z" fill="#32ADE6"/>
<path id="Vector_129" d="M148.886 212.202H127.822V220.382H148.886V212.202Z" fill="#FFCC00"/>
<path id="Vector_130" d="M214.692 212.202H154.276V220.382H214.692V212.202Z" fill="#EEF7FF"/>
</g>
<path id="Vector_131" d="M222.329 109.969H220.665V220.382H222.329V109.969Z" fill="white"/>
<path id="Vector_132" d="M91.4404 118.15C93.6995 118.15 95.5309 116.318 95.5309 114.059C95.5309 111.8 93.6995 109.969 91.4404 109.969C89.1812 109.969 87.3499 111.8 87.3499 114.059C87.3499 116.318 89.1812 118.15 91.4404 118.15Z" fill="white"/>
<path id="Vector_133" d="M91.4404 132.754C93.6995 132.754 95.5309 130.923 95.5309 128.664C95.5309 126.405 93.6995 124.573 91.4404 124.573C89.1812 124.573 87.3499 126.405 87.3499 128.664C87.3499 130.923 89.1812 132.754 91.4404 132.754Z" fill="white"/>
<path id="Vector_134" d="M91.4404 147.359C93.6995 147.359 95.5309 145.528 95.5309 143.268C95.5309 141.009 93.6995 139.178 91.4404 139.178C89.1812 139.178 87.3499 141.009 87.3499 143.268C87.3499 145.528 89.1812 147.359 91.4404 147.359Z" fill="white"/>
<path id="Vector_135" d="M91.4404 161.963C93.6995 161.963 95.5309 160.132 95.5309 157.872C95.5309 155.613 93.6995 153.782 91.4404 153.782C89.1812 153.782 87.3499 155.613 87.3499 157.872C87.3499 160.132 89.1812 161.963 91.4404 161.963Z" fill="white"/>
<path id="Vector_136" d="M91.4404 176.568C93.6995 176.568 95.5309 174.737 95.5309 172.477C95.5309 170.218 93.6995 168.387 91.4404 168.387C89.1812 168.387 87.3499 170.218 87.3499 172.477C87.3499 174.737 89.1812 176.568 91.4404 176.568Z" fill="white"/>
<path id="Vector_137" d="M91.4404 191.173C93.6995 191.173 95.5309 189.342 95.5309 187.083C95.5309 184.824 93.6995 182.992 91.4404 182.992C89.1812 182.992 87.3499 184.824 87.3499 187.083C87.3499 189.342 89.1812 191.173 91.4404 191.173Z" fill="white"/>
<path id="Vector_138" d="M91.4404 205.778C93.6995 205.778 95.5309 203.947 95.5309 201.688C95.5309 199.429 93.6995 197.597 91.4404 197.597C89.1812 197.597 87.3499 199.429 87.3499 201.688C87.3499 203.947 89.1812 205.778 91.4404 205.778Z" fill="white"/>
<path id="Vector_139" d="M91.4404 220.383C93.6995 220.383 95.5309 218.552 95.5309 216.293C95.5309 214.034 93.6995 212.202 91.4404 212.202C89.1812 212.202 87.3499 214.034 87.3499 216.293C87.3499 218.552 89.1812 220.383 91.4404 220.383Z" fill="white"/>
</g>
<path id="Vector_140" d="M100.375 68.1152C100.375 69.7722 99.0325 71.1152 97.3755 71.1152C95.7185 71.1152 94.3755 69.7722 94.3755 68.1152C94.3755 66.4583 95.7185 65.1152 97.3755 65.1152C99.0319 65.1152 100.375 66.4583 100.375 68.1152Z" fill="#FFDE4D"/>
<path id="Vector_141" d="M110 68C110 69.657 108.657 71 107 71C105.343 71 104 69.657 104 68C104 66.343 105.343 65 107 65C108.656 65 110 66.343 110 68Z" fill="#34C759"/>
</g>
<path id="Vector_142" d="M90 68C90 69.6569 88.6569 71 87 71C85.3431 71 84 69.6569 84 68C84 66.3431 85.3431 65 87 65C88.6569 64.9994 90 66.3425 90 68Z" fill="#FF0000"/>
</g>
<g id="Group_46">
<path id="Vector_143" d="M266.126 86.9417H251.405V91.066H266.126V86.9417Z" fill="#7D7B91"/>
<path id="Vector_144" d="M296.442 79.5974H251.405V83.7218H296.442V79.5974Z" fill="#7D7B91"/>
<g id="Group_47">
<g id="dotted-line-2">
<path id="Vector_145" d="M277.425 91.8516V93.4276" stroke="#FF2D55" stroke-width="0.788" stroke-miterlimit="10"/>
<path id="Vector_146" d="M277.425 96.0879V105.4" stroke="#FF2D55" stroke-width="0.788" stroke-miterlimit="10" stroke-dasharray="2.66 2.66"/>
<path id="Vector_147" d="M277.425 106.73V108.306H279.001" stroke="#FF2D55" stroke-width="0.788" stroke-miterlimit="10"/>
<path id="Vector_148" d="M282.002 108.306H328.527" stroke="#FF2D55" stroke-width="0.788" stroke-miterlimit="10" stroke-dasharray="3 3"/>
<path id="Vector_149" d="M330.027 108.306H331.603V106.73" stroke="#FF2D55" stroke-width="0.788" stroke-miterlimit="10"/>
<path id="Vector_150" d="M331.603 103.533V98.7378" stroke="#FF2D55" stroke-width="0.788" stroke-miterlimit="10" stroke-dasharray="3.2 3.2"/>
<path id="Vector_151" d="M331.603 97.139V95.563" stroke="#FF2D55" stroke-width="0.788" stroke-miterlimit="10"/>
</g>
</g>
<path id="CSS" d="M255.819 69.331C255.18 69.331 254.624 69.21 254.149 68.968C253.685 68.726 253.322 68.3775 253.06 67.9225C252.809 67.4579 252.683 66.911 252.683 66.2817V61.4901C252.683 60.8512 252.809 60.3042 253.06 59.8493C253.322 59.3943 253.685 59.0458 254.149 58.8038C254.624 58.5618 255.18 58.4408 255.819 58.4408C256.458 58.4408 257.01 58.5667 257.474 58.8183C257.939 59.0603 258.297 59.4088 258.549 59.8638C258.801 60.3188 258.927 60.8609 258.927 61.4901H257.62C257.62 60.8899 257.46 60.4301 257.141 60.1106C256.831 59.7815 256.39 59.617 255.819 59.617C255.248 59.617 254.798 59.7767 254.469 60.0961C254.149 60.4156 253.99 60.8754 253.99 61.4755V66.2817C253.99 66.8819 254.149 67.3466 254.469 67.6757C254.798 67.9951 255.248 68.1549 255.819 68.1549C256.39 68.1549 256.831 67.9951 257.141 67.6757C257.46 67.3466 257.62 66.8819 257.62 66.2817H258.927C258.927 66.9013 258.801 67.4434 258.549 67.908C258.297 68.363 257.939 68.7163 257.474 68.968C257.01 69.21 256.458 69.331 255.819 69.331ZM264.526 69.331C263.829 69.331 263.229 69.2148 262.725 68.9825C262.231 68.7502 261.849 68.4162 261.578 67.9806C261.307 67.545 261.167 67.0271 261.157 66.4269H262.464C262.464 66.9594 262.643 67.3804 263.001 67.6902C263.369 68 263.877 68.1549 264.526 68.1549C265.136 68.1549 265.61 68.0048 265.949 67.7047C266.297 67.4046 266.471 66.9884 266.471 66.456C266.471 66.0301 266.355 65.6574 266.123 65.3379C265.9 65.0185 265.576 64.7958 265.15 64.67L263.713 64.2199C262.987 63.9972 262.425 63.6245 262.028 63.1018C261.641 62.5791 261.447 61.9644 261.447 61.2577C261.447 60.6866 261.573 60.1929 261.825 59.7767C262.086 59.3507 262.449 59.0216 262.914 58.7893C263.379 58.5473 263.925 58.4263 264.555 58.4263C265.484 58.4263 266.229 58.6877 266.791 59.2104C267.352 59.7234 267.638 60.4107 267.648 61.2723H266.341C266.341 60.7495 266.181 60.343 265.862 60.0526C265.552 59.7525 265.111 59.6024 264.54 59.6024C263.979 59.6024 263.538 59.738 263.219 60.009C262.909 60.28 262.754 60.6576 262.754 61.1416C262.754 61.5772 262.87 61.9547 263.103 62.2742C263.335 62.5936 263.669 62.8211 264.105 62.9566L265.557 63.4213C266.263 63.6439 266.81 64.0214 267.197 64.5538C267.585 65.0862 267.778 65.7106 267.778 66.4269C267.778 67.0078 267.643 67.516 267.372 67.9516C267.101 68.3872 266.718 68.726 266.225 68.968C265.741 69.21 265.174 69.331 264.526 69.331ZM273.232 69.331C272.535 69.331 271.935 69.2148 271.432 68.9825C270.938 68.7502 270.556 68.4162 270.285 67.9806C270.013 67.545 269.873 67.0271 269.863 66.4269H271.17C271.17 66.9594 271.349 67.3804 271.708 67.6902C272.075 68 272.584 68.1549 273.232 68.1549C273.842 68.1549 274.316 68.0048 274.655 67.7047C275.004 67.4046 275.178 66.9884 275.178 66.456C275.178 66.0301 275.062 65.6574 274.829 65.3379C274.607 65.0185 274.282 64.7958 273.856 64.67L272.419 64.2199C271.693 63.9972 271.132 63.6245 270.735 63.1018C270.347 62.5791 270.154 61.9644 270.154 61.2577C270.154 60.6866 270.28 60.1929 270.531 59.7767C270.793 59.3507 271.156 59.0216 271.62 58.7893C272.085 58.5473 272.632 58.4263 273.261 58.4263C274.19 58.4263 274.936 58.6877 275.497 59.2104C276.059 59.7234 276.344 60.4107 276.354 61.2723H275.047C275.047 60.7495 274.887 60.343 274.568 60.0526C274.258 59.7525 273.818 59.6024 273.247 59.6024C272.685 59.6024 272.245 59.738 271.925 60.009C271.616 60.28 271.461 60.6576 271.461 61.1416C271.461 61.5772 271.577 61.9547 271.809 62.2742C272.041 62.5936 272.375 62.8211 272.811 62.9566L274.263 63.4213C274.97 63.6439 275.517 64.0214 275.904 64.5538C276.291 65.0862 276.485 65.7106 276.485 66.4269C276.485 67.0078 276.349 67.516 276.078 67.9516C275.807 68.3872 275.425 68.726 274.931 68.968C274.447 69.21 273.881 69.331 273.232 69.331Z" fill="#EEF7FF"/>
<g id="Group_48">
<g id="spinner-2">
<path id="Vector_152" d="M343.542 78.7655C343.389 78.2296 343.192 77.6993 342.963 77.18C342.307 75.7151 341.405 74.4362 340.323 73.3756C339.296 72.3701 338.104 71.5553 336.819 70.9651C336.797 70.9485 336.769 70.9375 336.748 70.932C334.933 70.1062 332.933 69.7185 330.91 69.828C329.527 69.9044 328.133 70.2165 326.788 70.7791C326.707 70.8177 326.619 70.85 326.537 70.8886C324.127 71.9658 322.224 73.7144 320.961 75.8247C319.387 78.4377 318.791 81.5913 319.409 84.6747C319.584 85.5659 319.863 86.4453 320.245 87.309C323.038 93.5736 330.407 96.3938 336.665 93.6004C340.486 91.8951 343.028 88.4949 343.794 84.6739C344.181 82.7559 344.116 80.7331 343.542 78.7655ZM335.118 90.1245C330.773 92.0598 325.662 90.1024 323.727 85.7566C323.569 85.4012 323.437 85.0403 323.328 84.6747C322.656 82.4005 322.978 80.0011 324.088 78.0279C324.094 78.0114 324.105 77.9893 324.116 77.9735C324.99 76.4322 326.346 75.1423 328.089 74.3661C328.417 74.2242 328.745 74.0982 329.085 73.9997C329.118 73.9831 329.15 73.9721 329.189 73.9666C330.916 73.4583 332.703 73.5237 334.333 74.0651C334.338 74.0651 334.344 74.0706 334.349 74.0706C335.743 74.5402 337.017 75.3661 338.022 76.4811C338.612 77.1312 339.105 77.8861 339.482 78.7332C339.716 79.258 339.891 79.7938 340.017 80.3297C340.351 81.7946 340.285 83.287 339.876 84.6755C339.191 87.0198 337.518 89.0528 335.118 90.1245Z" fill="#7D7B91"/>
<path id="pink-line" d="M343.793 84.6745H339.874C340.284 83.286 340.349 81.7936 340.016 80.3287C339.89 79.7928 339.715 79.257 339.48 78.7322C339.102 77.8851 338.611 77.1302 338.02 76.4801C337.015 75.3651 335.741 74.5392 334.348 74.0696C334.342 74.0696 334.337 74.0641 334.331 74.0641C332.702 73.5227 330.914 73.4573 329.187 73.9656C329.149 73.9711 329.116 73.9821 329.083 73.9987C328.744 74.0972 328.416 74.2225 328.088 74.3651C326.344 75.1413 324.989 76.4312 324.114 77.9725C324.103 77.9891 324.092 78.0112 324.086 78.0269C322.977 80.0001 322.654 82.3995 323.327 84.6737H319.407C318.789 81.5903 319.385 78.4367 320.96 75.8237C322.222 73.7134 324.125 71.9648 326.535 70.8876C326.617 70.849 326.705 70.8167 326.787 70.7781C328.132 70.2155 329.525 69.9034 330.908 69.827C332.931 69.7175 334.931 70.1059 336.746 70.931C336.768 70.9365 336.795 70.9475 336.817 70.9641C338.102 71.5543 339.293 72.3691 340.321 73.3746C341.404 74.4352 342.306 75.7141 342.961 77.179C343.191 77.6983 343.388 78.2286 343.54 78.7645C344.116 80.7329 344.181 82.7557 343.793 84.6745Z" fill="#FF2D55"/>
</g>
<g id="spinner-1">
<path id="Vector_153" d="M60.4016 233.804C60.2172 233.157 59.9795 232.518 59.7029 231.891C58.9121 230.124 57.8238 228.582 56.5187 227.302C55.2793 226.089 53.8421 225.107 52.2918 224.395C52.2652 224.375 52.232 224.361 52.2063 224.355C50.0173 223.359 47.6039 222.891 45.164 223.023C43.4959 223.115 41.8144 223.492 40.1928 224.17C40.094 224.217 39.9885 224.256 39.8896 224.303C36.982 225.602 34.6875 227.711 33.1638 230.257C31.2647 233.408 30.5461 237.212 31.2913 240.932C31.5023 242.007 31.8388 243.067 32.2998 244.109C35.6694 251.666 44.5576 255.068 52.1065 251.698C56.7155 249.641 59.7819 245.54 60.7048 240.931C61.1724 238.617 61.0936 236.177 60.4016 233.804ZM50.2407 247.505C44.9986 249.84 38.8336 247.479 36.5001 242.237C36.3091 241.808 36.1503 241.373 36.0192 240.932C35.2084 238.188 35.5971 235.294 36.9354 232.914C36.9421 232.894 36.9554 232.868 36.9687 232.849C38.0238 230.989 39.6586 229.433 41.7621 228.497C42.1575 228.326 42.5529 228.174 42.9626 228.055C43.0025 228.035 43.0415 228.022 43.0881 228.015C45.1716 227.402 47.3273 227.481 49.293 228.134C49.2996 228.134 49.3063 228.141 49.313 228.141C50.9944 228.707 52.5304 229.703 53.7433 231.048C54.4552 231.832 55.0493 232.743 55.5036 233.765C55.7869 234.398 55.9979 235.044 56.1499 235.691C56.552 237.458 56.4731 239.258 55.9789 240.933C55.1529 243.76 53.135 246.213 50.2407 247.505Z" fill="#7D7B91"/>
<path id="yellow-line" d="M60.7048 240.931H55.9769C56.4712 239.257 56.5501 237.456 56.148 235.689C55.9959 235.043 55.7849 234.397 55.5017 233.764C55.0464 232.742 54.4533 231.831 53.7413 231.047C52.5285 229.702 50.9915 228.706 49.311 228.139C49.3044 228.139 49.2977 228.133 49.2911 228.133C47.3264 227.48 45.1697 227.401 43.0861 228.014C43.0405 228.021 43.0006 228.034 42.9607 228.054C42.552 228.173 42.1566 228.324 41.7602 228.496C39.6567 229.432 38.0218 230.988 36.9668 232.847C36.9535 232.867 36.9402 232.894 36.9335 232.913C35.5952 235.293 35.2055 238.187 36.0172 240.93H31.2894C30.5442 237.211 31.2628 233.407 33.1619 230.255C34.6846 227.71 36.9801 225.601 39.8877 224.301C39.9865 224.255 40.0921 224.216 40.1909 224.169C41.8134 223.49 43.4939 223.114 45.162 223.022C47.602 222.89 50.0144 223.358 52.2043 224.354C52.231 224.36 52.2633 224.374 52.2899 224.393C53.8392 225.105 55.2764 226.088 56.5168 227.301C57.8228 228.58 58.9102 230.123 59.701 231.89C59.9776 232.517 60.2152 233.156 60.3996 233.803C61.0935 236.177 61.1724 238.617 60.7048 240.931Z" fill="#FFDE4D"/>
</g>
</g>
<path id="Vector_154" d="M296.442 86.9417H269.077V91.066H296.442V86.9417Z" fill="#7D7B91"/>
</g>
<g id="Group_49">
<path id="{ }" d="M44.7668 56.3249L45.1632 57.4833C44.357 57.734 43.8015 58.1845 43.4966 58.8348C43.1918 59.4784 43.0393 60.2168 43.0393 61.0501V63.1536C43.0393 63.831 42.9005 64.4475 42.6227 65.003C42.3517 65.5518 41.9182 65.9887 41.322 66.3139C40.7326 66.6391 39.9569 66.8017 38.995 66.8017V65.5619C39.7605 65.5619 40.3092 65.3451 40.6412 64.9116C40.9799 64.478 41.1493 63.892 41.1493 63.1536V61.0501C41.1493 60.3388 41.2576 59.6749 41.4744 59.0584C41.698 58.4351 42.0706 57.8898 42.5922 57.4223C43.1206 56.9481 43.8455 56.5823 44.7668 56.3249ZM45.1632 75.1038L44.7668 76.2724C43.8455 76.0082 43.1206 75.6424 42.5922 75.175C42.0706 74.7075 41.698 74.1622 41.4744 73.5389C41.2576 72.9224 41.1493 72.2585 41.1493 71.5472V69.4539C41.1493 68.9593 41.0747 68.5325 40.9257 68.1735C40.7767 67.8144 40.5429 67.5367 40.2245 67.3402C39.9129 67.137 39.503 67.0354 38.995 67.0354V65.7956C39.9569 65.7956 40.7326 65.9582 41.322 66.2834C41.9182 66.6086 42.3517 67.0489 42.6227 67.6044C42.9005 68.1532 43.0393 68.7697 43.0393 69.4539V71.5472C43.0393 72.1027 43.1037 72.6176 43.2324 73.0918C43.3679 73.566 43.5881 73.9759 43.8929 74.3214C44.2046 74.6736 44.628 74.9345 45.1632 75.1038ZM50.7623 57.4833L51.1586 56.3249C52.0867 56.5823 52.8116 56.9481 53.3332 57.4223C53.8616 57.8898 54.2342 58.4351 54.451 59.0584C54.6678 59.6749 54.7762 60.3388 54.7762 61.0501V63.1536C54.7762 63.6413 54.8507 64.0681 54.9998 64.434C55.1488 64.793 55.3791 65.0708 55.6908 65.2672C56.0092 65.4637 56.4224 65.5619 56.9305 65.5619V66.7102C55.9753 66.7102 55.1996 66.5578 54.6034 66.2529C54.0073 65.9413 53.5703 65.5179 53.2926 64.9827C53.0216 64.4407 52.8861 63.831 52.8861 63.1536V61.0501C52.8861 60.4946 52.8217 59.9797 52.693 59.5055C52.5643 59.0245 52.3441 58.6113 52.0325 58.2658C51.7277 57.9135 51.3043 57.6527 50.7623 57.4833ZM51.1586 76.2724L50.7623 75.1038C51.2975 74.9345 51.7175 74.6736 52.0224 74.3214C52.334 73.9759 52.5542 73.566 52.6829 73.0918C52.8184 72.6176 52.8861 72.1027 52.8861 71.5472V69.4539C52.8861 68.7697 53.0216 68.1599 53.2926 67.6248C53.5703 67.0896 54.0073 66.6696 54.6034 66.3647C55.1996 66.0531 55.9753 65.8973 56.9305 65.8973V67.0354C56.1717 67.0354 55.623 67.2556 55.2843 67.6959C54.9456 68.1295 54.7762 68.7155 54.7762 69.4539V71.5472C54.7762 72.2585 54.6678 72.9224 54.451 73.5389C54.2342 74.1622 53.8616 74.7075 53.3332 75.175C52.8116 75.6424 52.0867 76.0082 51.1586 76.2724Z" fill="#EEF7FF"/>
<g id="beep-1">
<path id="Vector_155" d="M54.4145 97.6694H38.229V105.393H54.4145V97.6694Z" fill="#EEF7FF"/>
<path id="Vector_156" d="M54.4145 111.163H38.229V118.887H54.4145V111.163Z" fill="#EEF7FF"/>
<path id="Vector_157" d="M54.4145 124.658H38.229V132.382H54.4145V124.658Z" fill="#FFCC00"/>
<path id="Vector_158" d="M54.4145 138.152H38.229V145.876H54.4145V138.152Z" fill="#FFCC00"/>
<path id="Vector_159" d="M54.4145 151.647H38.229V159.371H54.4145V151.647Z" fill="#FFCC00"/>
<path id="Vector_160" d="M54.4145 165.141H38.229V172.865H54.4145V165.141Z" fill="#FFCC00"/>
<path id="Vector_161" d="M54.4145 178.635H38.229V186.359H54.4145V178.635Z" fill="#FFCC00"/>
</g>
</g>
<g id="Group_50">
<g id="disc-2">
<path id="Vector_162" d="M511.799 249.55C511.799 249.494 511.806 249.445 511.806 249.389C511.806 249.333 511.799 249.284 511.799 249.234C512.605 248.862 513.419 248.435 514.218 247.916C515.073 247.326 515.943 246.646 516.75 245.868L516.574 245.181C516.406 244.402 516.104 243.652 515.831 242.902C515.677 242.537 515.495 242.179 515.319 241.822C515.157 241.45 514.961 241.107 514.744 240.77L514.379 240.167C513.278 240.174 512.163 240.315 511.146 240.504C510.227 240.693 509.336 240.966 508.509 241.282L508.284 241.058C508.593 240.223 508.874 239.339 509.056 238.421C509.252 237.405 509.392 236.289 509.399 235.188L508.797 234.823C508.46 234.606 508.109 234.409 507.745 234.248C507.387 234.072 507.029 233.89 506.657 233.736C505.907 233.462 505.164 233.16 504.385 232.993L503.698 232.817C502.92 233.623 502.24 234.486 501.65 235.349C501.132 236.141 500.704 236.955 500.332 237.768C500.283 237.768 500.227 237.754 500.177 237.754C500.122 237.754 500.072 237.768 500.016 237.768C499.651 236.955 499.216 236.141 498.697 235.349C498.115 234.486 497.428 233.624 496.657 232.817L495.97 232.993C495.184 233.16 494.441 233.462 493.691 233.736C493.326 233.89 492.968 234.072 492.603 234.248C492.238 234.409 491.895 234.606 491.551 234.823L490.948 235.188C490.963 236.289 491.103 237.404 491.292 238.421C491.481 239.34 491.755 240.223 492.071 241.058C491.993 241.135 491.916 241.205 491.846 241.282C491.011 240.966 490.127 240.694 489.209 240.504C488.193 240.315 487.071 240.174 485.976 240.167L485.604 240.77C485.394 241.107 485.198 241.45 485.029 241.822C484.861 242.18 484.678 242.538 484.524 242.902C484.243 243.652 483.949 244.403 483.781 245.181L483.606 245.868C484.412 246.646 485.275 247.326 486.138 247.916C486.93 248.434 487.744 248.862 488.55 249.234C488.55 249.283 488.543 249.333 488.543 249.389C488.543 249.444 488.55 249.494 488.55 249.55C487.744 249.915 486.93 250.35 486.138 250.868C485.275 251.451 484.413 252.138 483.606 252.909L483.781 253.596C483.949 254.375 484.243 255.125 484.524 255.875C484.678 256.24 484.861 256.598 485.029 256.962C485.197 257.327 485.394 257.67 485.604 258.007L485.976 258.61C487.07 258.603 488.192 258.462 489.209 258.273C490.128 258.084 491.011 257.811 491.846 257.495C491.916 257.572 491.993 257.649 492.071 257.719C491.755 258.554 491.481 259.437 491.292 260.356C491.103 261.372 490.963 262.495 490.948 263.589L491.551 263.961C491.895 264.171 492.238 264.368 492.603 264.529C492.968 264.705 493.326 264.887 493.691 265.041C494.441 265.322 495.184 265.617 495.97 265.784L496.657 265.96C497.428 265.153 498.115 264.291 498.697 263.428C499.216 262.636 499.651 261.822 500.016 261.009C500.072 261.016 500.121 261.023 500.177 261.023C500.226 261.023 500.282 261.016 500.332 261.009C500.704 261.822 501.132 262.636 501.65 263.428C502.24 264.291 502.92 265.153 503.698 265.96L504.385 265.784C505.164 265.616 505.907 265.322 506.657 265.041C507.029 264.887 507.387 264.705 507.745 264.529C508.109 264.368 508.46 264.171 508.797 263.961L509.399 263.589C509.392 262.495 509.252 261.373 509.056 260.356C508.873 259.437 508.593 258.554 508.284 257.719C508.362 257.649 508.432 257.572 508.509 257.495C509.336 257.81 510.227 258.084 511.146 258.273C512.163 258.462 513.278 258.603 514.379 258.61L514.744 258.007C514.961 257.67 515.157 257.327 515.319 256.962C515.494 256.597 515.677 256.239 515.831 255.875C516.104 255.125 516.406 254.375 516.574 253.596L516.75 252.909C515.944 252.138 515.074 251.451 514.218 250.868C513.419 250.35 512.606 249.915 511.799 249.55ZM500.179 254.95C497.107 254.95 494.618 252.461 494.618 249.389C494.618 246.318 497.108 243.828 500.179 243.828C503.251 243.828 505.74 246.318 505.74 249.389C505.74 252.461 503.251 254.95 500.179 254.95Z" fill="#69696D"/>
</g>
<g id="Group_51">
<g id="Group_52">
<path id="Vector_163" d="M460.695 228.898H453.353V261.969H460.695V228.898Z" fill="#FF0000"/>
<path id="Vector_164" d="M450.392 243.469H442.522V261.968H450.392V243.469Z" fill="#69696D"/>
<path id="Vector_165" d="M439.49 249.389H431.619V261.969H439.49V249.389Z" fill="#FD783D"/>
</g>
<g id="Group_53">
<g id="Group_54">
<path id="Vector_166" d="M430.227 256.7H428.651" stroke="#FD783D" stroke-width="0.788" stroke-miterlimit="10"/>
<path id="Vector_167" d="M424.655 256.7H418.661" stroke="#FD783D" stroke-width="0.788" stroke-miterlimit="10" stroke-dasharray="4 4"/>
<path id="Vector_168" d="M416.663 256.7H415.087V258.276" stroke="#FD783D" stroke-width="0.788" stroke-miterlimit="10"/>
<path id="Vector_169" d="M415.087 261.224V283.33" stroke="#FD783D" stroke-width="0.788" stroke-miterlimit="10" stroke-dasharray="2.95 2.95"/>
<path id="Vector_170" d="M415.087 284.804V286.38H416.663" stroke="#FD783D" stroke-width="0.788" stroke-miterlimit="10"/>
<path id="Vector_171" d="M419.339 286.38H428.705" stroke="#FD783D" stroke-width="0.788" stroke-miterlimit="10" stroke-dasharray="2.68 2.68"/>
<path id="Vector_172" d="M430.043 286.38H431.619" stroke="#FD783D" stroke-width="0.788" stroke-miterlimit="10"/>
</g>
</g>
<g id="Group_55">
<path id="Vector_173" d="M454.938 284.911H434.112V288.633H454.938V284.911Z" fill="#F9EFE7"/>
<path id="Vector_174" d="M448.517 291.797H434.112V295.519H448.517V291.797Z" fill="#F9EFE7"/>
<path id="Vector_175" d="M452.345 298.684H434.112V302.405H452.345V298.684Z" fill="#F9EFE7"/>
<path id="Vector_176" d="M460.374 298.684H456.117V302.405H460.374V298.684Z" fill="#EBA154"/>
<path id="Vector_177" d="M479.936 298.684H464.276V302.405H479.936V298.684Z" fill="#EBA154"/>
<path id="Vector_178" d="M479.936 291.797H453.133V295.519H479.936V291.797Z" fill="#EBA154"/>
<path id="Vector_179" d="M479.936 284.911H459.11V288.633H479.936V284.911Z" fill="#EBA154"/>
</g>
</g>
<g id="beep-2">
<path id="Vector_180" d="M551.358 247.371H537.635V253.92H551.358V247.371Z" fill="#FF0000"/>
<path id="Vector_181" d="M551.358 258.813H537.635V265.362H551.358V258.813Z" fill="#FF0000"/>
<path id="Vector_182" d="M551.358 270.254H537.635V276.803H551.358V270.254Z" fill="#FF0000"/>
<path id="Vector_183" d="M551.358 281.695H537.635V288.244H551.358V281.695Z" fill="#FF0000"/>
<path id="Vector_184" d="M551.358 293.136H537.635V299.685H551.358V293.136Z" fill="#EEF7FF"/>
<path id="Vector_185" d="M551.358 304.577H537.635V311.126H551.358V304.577Z" fill="#EEF7FF"/>
<path id="Vector_186" d="M551.358 316.019H537.635V322.568H551.358V316.019Z" fill="#EEF7FF"/>
</g>
</g>
<g id="Group_56">
<g id="leaf-1">
<path id="Vector_187" d="M491.527 341.333C486.398 341.719 482.105 340.5 478.518 338.274C464.042 329.316 461.022 304.051 460.814 302.154C460.94 302.736 462.368 305.825 477.414 315.948C478.666 316.792 479.812 317.649 480.859 318.515C480.859 318.515 480.877 318.53 480.913 318.557C494.025 329.415 491.527 341.333 491.527 341.333Z" fill="#34C759"/>
<path id="Vector_188" d="M460.803 302.042C460.803 302.042 474.321 335.212 489.316 338.704" stroke="#2A9D47" stroke-width="0.788" stroke-miterlimit="10"/>
<path id="Vector_189" opacity="0.5" d="M491.527 341.333C486.398 341.719 482.105 340.5 478.518 338.274C481.399 331.456 480.859 318.516 480.859 318.516C480.859 318.516 480.877 318.531 480.913 318.558C494.025 329.415 491.527 341.333 491.527 341.333Z" fill="#34C759"/>
</g>
<g id="leaf-3">
<path id="Vector_190" d="M529.951 303.999C529.893 304.352 529.691 305.577 529.287 307.381C529.287 307.381 529.287 307.385 529.287 307.388C527.151 316.952 519.443 342.688 498.703 340.108C498.703 340.108 498.353 337.899 499.053 334.596C500.079 329.739 503.377 322.506 513.408 316.442C528.293 307.439 529.799 304.549 529.951 303.999Z" fill="#34C759"/>
<path id="Vector_191" d="M529.286 306.042C529.286 306.042 518.643 333.619 500.179 339.243" stroke="#2A9D47" stroke-width="0.788" stroke-miterlimit="10"/>
<path id="Vector_192" opacity="0.5" d="M529.286 307.381C529.286 307.381 529.286 307.384 529.286 307.388C527.15 316.952 519.442 342.688 498.702 340.108C498.702 340.108 498.352 337.899 499.052 334.596H499.073C516.328 335.518 529.286 307.381 529.286 307.381Z" fill="#34C759"/>
</g>
<g id="leaf-2">
<path id="Vector_193" d="M497.589 341.028C497.076 341.919 489.503 338.772 486.091 329.666H486.088C484.039 324.196 483.493 316.575 486.878 306.393C495.772 279.65 492.107 274.608 491.998 274.466C492.176 274.55 499.905 278.389 504.89 287.727C504.89 287.727 504.896 287.738 504.911 287.763C510.393 298.062 512.532 315.036 497.589 341.028Z" fill="#34C759"/>
<path id="Vector_194" d="M491.994 274.462C491.994 274.462 503.592 289.095 499.176 316.93C494.759 344.763 497.589 341.027 497.589 341.027" stroke="#2A9D47" stroke-width="0.788" stroke-miterlimit="10"/>
<path id="Vector_195" opacity="0.5" d="M497.589 341.028C497.076 341.919 489.503 338.771 486.091 329.666C505.186 335.091 504.89 287.726 504.89 287.726C504.89 287.726 504.897 287.737 504.912 287.762C510.393 298.062 512.532 315.036 497.589 341.028Z" fill="#34C759"/>
</g>
<path id="Vector_196" d="M460.802 302.042C460.802 302.042 460.805 302.072 460.811 302.136C460.795 302.069 460.802 302.042 460.802 302.042Z" fill="#0C8068"/>
<path id="Vector_197" d="M512.267 340.629V362.006C512.267 368.26 507.198 373.328 500.944 373.328H490.892C486.797 373.328 483.21 371.156 481.222 367.897H481.219C480.172 366.18 479.569 364.162 479.569 362.005V340.629H512.267V340.629Z" fill="#EBA154"/>
<path id="Vector_198" d="M513.455 337.856H478.38C477.92 337.856 477.546 338.23 477.546 338.691V339.795C477.546 340.256 477.92 340.629 478.38 340.629H513.455C513.916 340.629 514.29 340.256 514.29 339.795V338.691C514.29 338.231 513.916 337.856 513.455 337.856Z" fill="#EBA154"/>
<path id="Vector_199" d="M512.267 340.629V362.005C512.267 368.26 507.198 373.328 500.944 373.328H490.892C486.797 373.328 483.21 371.156 481.222 367.897C505.172 375.419 510.373 357.809 509.447 350.824C508.523 343.84 499.894 340.629 499.894 340.629H512.267Z" fill="#DC831E"/>
</g>
</g>
</g>
<defs>
<clipPath id="clip0_7081_183">
<rect width="591" height="394" fill="white"/>
</clipPath>
</defs>
</svg>
