<svg width="88" height="44" viewBox="0 0 88 44" fill="none" xmlns="http://www.w3.org/2000/svg">
<path d="M32.168 21.864C32.4453 21.864 32.6587 21.992 32.808 22.248C32.9787 22.504 33.064 22.856 33.064 23.304C33.064 24.136 32.8613 24.7973 32.456 25.288C30.344 27.8693 28.0933 29.16 25.704 29.16C23.6347 29.16 21.9813 28.36 20.744 26.76C19.5067 25.16 18.888 22.8667 18.888 19.88C18.888 19.1547 18.92 18.4293 18.984 17.704C17.576 17.96 16.04 18.152 14.376 18.28C13.2667 18.3653 12.5093 18.4187 12.104 18.44C11.6773 20.616 11.08 23.2827 10.312 26.44C9.864 28.296 9.01067 29.224 7.752 29.224C6.38667 29.224 5.704 28.6053 5.704 27.368C5.704 27.0907 5.75733 26.7067 5.864 26.216C6.58933 23.2933 7.16533 20.8187 7.592 18.792L6.056 18.856C5.352 18.856 4.84 18.7387 4.52 18.504C4.2 18.248 4.04 17.8427 4.04 17.288C4.04 16.584 4.24267 16.072 4.648 15.752C5.05333 15.4107 5.72533 15.2187 6.664 15.176L8.36 15.112C8.91467 12.104 9.192 9.81067 9.192 8.232C9.192 7.22933 9.04267 6.54667 8.744 6.184C8.44533 5.82133 8.05067 5.64 7.56 5.64C6.06667 5.64 4.38133 6.888 2.504 9.384C2.22667 9.74667 1.91733 9.928 1.576 9.928C1.27733 9.928 1.02133 9.78933 0.808 9.512C0.594667 9.23467 0.488 8.88267 0.488 8.456C0.488 7.79467 0.754667 7.09067 1.288 6.344C2.22667 5.04267 3.41067 3.976 4.84 3.144C6.26933 2.29067 7.72 1.864 9.192 1.864C10.5787 1.864 11.6453 2.344 12.392 3.304C13.16 4.24266 13.544 5.71467 13.544 7.72C13.544 9.49067 13.288 11.8907 12.776 14.92L15.912 14.76C17.256 14.696 18.408 14.5893 19.368 14.44C19.752 12.0933 20.3387 9.896 21.128 7.848C21.9173 5.8 22.8987 4.136 24.072 2.856C25.2453 1.576 26.5573 0.935999 28.008 0.935999C29.0747 0.935999 29.9173 1.36267 30.536 2.216C31.1547 3.048 31.464 4.14667 31.464 5.512C31.464 10.8027 28.7653 14.472 23.368 16.52C23.304 17.3733 23.272 18.2587 23.272 19.176C23.272 21.416 23.5493 23.0053 24.104 23.944C24.6587 24.8827 25.4373 25.352 26.44 25.352C27.3147 25.352 28.1147 25.128 28.84 24.68C29.5653 24.2107 30.3867 23.4213 31.304 22.312C31.56 22.0133 31.848 21.864 32.168 21.864ZM27.848 3.72C27.3787 3.72 26.8773 4.14667 26.344 5C25.832 5.85333 25.3413 7.016 24.872 8.488C24.4027 9.96 24.0293 11.5707 23.752 13.32C25.4587 12.616 26.7173 11.6133 27.528 10.312C28.3387 9.01067 28.744 7.336 28.744 5.288C28.744 4.79733 28.6587 4.41333 28.488 4.136C28.3173 3.85867 28.104 3.72 27.848 3.72ZM34.4095 29.16C33.0868 29.16 32.0308 28.68 31.2415 27.72C30.4522 26.76 30.0575 25.5013 30.0575 23.944C30.0575 22.2373 30.4522 20.6267 31.2415 19.112C32.0308 17.576 33.0762 16.3493 34.3775 15.432C35.7002 14.4933 37.0975 14.024 38.5695 14.024C39.0388 14.024 39.3482 14.12 39.4975 14.312C39.6682 14.4827 39.8068 14.8027 39.9135 15.272C40.3615 15.1867 40.8308 15.144 41.3215 15.144C42.3668 15.144 42.8895 15.5173 42.8895 16.264C42.8895 16.712 42.7295 17.7787 42.4095 19.464C41.9188 21.9173 41.6735 23.624 41.6735 24.584C41.6735 24.904 41.7482 25.16 41.8975 25.352C42.0682 25.544 42.2815 25.64 42.5375 25.64C42.9428 25.64 43.4335 25.384 44.0095 24.872C44.5855 24.3387 45.3642 23.4853 46.3455 22.312C46.6015 22.0133 46.8895 21.864 47.2095 21.864C47.4868 21.864 47.7002 21.992 47.8495 22.248C48.0202 22.504 48.1055 22.856 48.1055 23.304C48.1055 24.1573 47.9028 24.8187 47.4975 25.288C46.6228 26.376 45.6948 27.2933 44.7135 28.04C43.7322 28.7867 42.7828 29.16 41.8655 29.16C41.1615 29.16 40.5108 28.9253 39.9135 28.456C39.3375 27.9653 38.9002 27.304 38.6015 26.472C37.4922 28.264 36.0948 29.16 34.4095 29.16ZM35.5615 25.928C36.0308 25.928 36.4788 25.6507 36.9055 25.096C37.3322 24.5413 37.6415 23.8053 37.8335 22.888L39.0175 17C38.1215 17.0213 37.2895 17.3627 36.5215 18.024C35.7748 18.664 35.1775 19.5173 34.7295 20.584C34.2815 21.6507 34.0575 22.7813 34.0575 23.976C34.0575 24.6373 34.1855 25.128 34.4415 25.448C34.7188 25.768 35.0922 25.928 35.5615 25.928ZM47.7768 29.16C46.9661 29.16 46.3901 28.7333 46.0488 27.88C45.7288 27.0267 45.5688 25.6613 45.5688 23.784C45.5688 21.0107 45.9634 18.376 46.7528 15.88C46.9448 15.2613 47.2541 14.8133 47.6808 14.536C48.1288 14.2373 48.7474 14.088 49.5368 14.088C49.9634 14.088 50.2621 14.1413 50.4328 14.248C50.6034 14.3547 50.6888 14.5573 50.6888 14.856C50.6888 15.1973 50.5288 15.9653 50.2088 17.16C49.9954 18.0133 49.8248 18.76 49.6968 19.4C49.5688 20.04 49.4621 20.8293 49.3768 21.768C50.0808 19.9333 50.8701 18.44 51.7448 17.288C52.6194 16.136 53.4728 15.3147 54.3048 14.824C55.1581 14.3333 55.9368 14.088 56.6408 14.088C58.0274 14.088 58.7208 14.7813 58.7208 16.168C58.7208 16.4453 58.6248 17.1173 58.4328 18.184C58.2621 19.0373 58.1768 19.5707 58.1768 19.784C58.1768 20.5307 58.4434 20.904 58.9768 20.904C59.5741 20.904 60.3421 20.4347 61.2808 19.496C61.5581 19.2187 61.8461 19.08 62.1448 19.08C62.4221 19.08 62.6354 19.208 62.7847 19.464C62.9554 19.6987 63.0408 20.0187 63.0408 20.424C63.0408 21.2133 62.8274 21.832 62.4008 22.28C61.8034 22.8987 61.0994 23.432 60.2888 23.88C59.4994 24.3067 58.6568 24.52 57.7608 24.52C56.6301 24.52 55.7661 24.232 55.1688 23.656C54.5928 23.08 54.3048 22.3013 54.3048 21.32C54.3048 21 54.3368 20.68 54.4008 20.36C54.4434 19.9333 54.4648 19.6453 54.4648 19.496C54.4648 19.1547 54.3474 18.984 54.1128 18.984C53.7928 18.984 53.3661 19.3467 52.8328 20.072C52.3208 20.776 51.8088 21.7147 51.2968 22.888C50.7848 24.0613 50.3688 25.2987 50.0488 26.6C49.8141 27.6027 49.5368 28.2853 49.2168 28.648C48.9181 28.9893 48.4381 29.16 47.7768 29.16ZM62.3393 29.16C61.5286 29.16 60.9526 28.7333 60.6113 27.88C60.2913 27.0267 60.1313 25.6613 60.1313 23.784C60.1313 21.0107 60.5259 18.376 61.3153 15.88C61.5073 15.2613 61.8166 14.8133 62.2433 14.536C62.6913 14.2373 63.3099 14.088 64.0993 14.088C64.5259 14.088 64.8246 14.1413 64.9953 14.248C65.1659 14.3547 65.2513 14.5573 65.2513 14.856C65.2513 15.1973 65.0913 15.9653 64.7713 17.16C64.5579 18.0133 64.3873 18.76 64.2593 19.4C64.1313 20.04 64.0246 20.8293 63.9393 21.768C64.6433 19.9333 65.4326 18.44 66.3073 17.288C67.1819 16.136 68.0353 15.3147 68.8673 14.824C69.7206 14.3333 70.4993 14.088 71.2033 14.088C72.5899 14.088 73.2833 14.7813 73.2833 16.168C73.2833 16.4453 73.1873 17.1173 72.9953 18.184C72.8246 19.0373 72.7393 19.5707 72.7393 19.784C72.7393 20.5307 73.0059 20.904 73.5393 20.904C74.1366 20.904 74.9046 20.4347 75.8433 19.496C76.1206 19.2187 76.4086 19.08 76.7073 19.08C76.9846 19.08 77.1979 19.208 77.3472 19.464C77.5179 19.6987 77.6033 20.0187 77.6033 20.424C77.6033 21.2133 77.3899 21.832 76.9633 22.28C76.3659 22.8987 75.6619 23.432 74.8513 23.88C74.0619 24.3067 73.2193 24.52 72.3233 24.52C71.1926 24.52 70.3286 24.232 69.7313 23.656C69.1553 23.08 68.8673 22.3013 68.8673 21.32C68.8673 21 68.8993 20.68 68.9633 20.36C69.0059 19.9333 69.0273 19.6453 69.0273 19.496C69.0273 19.1547 68.9099 18.984 68.6753 18.984C68.3553 18.984 67.9286 19.3467 67.3953 20.072C66.8833 20.776 66.3713 21.7147 65.8593 22.888C65.3473 24.0613 64.9313 25.2987 64.6113 26.6C64.3766 27.6027 64.0993 28.2853 63.7793 28.648C63.4806 28.9893 63.0006 29.16 62.3393 29.16ZM85.8298 14.088C86.3204 14.088 86.6618 14.152 86.8538 14.28C87.0458 14.408 87.1418 14.6213 87.1418 14.92C87.1418 15.432 86.8644 17.256 86.3098 20.392C85.8191 23.4 85.5311 25.1813 85.4458 25.736C84.6564 31.2187 83.5684 35.56 82.1818 38.76C80.7951 41.96 78.9498 43.56 76.6458 43.56C75.5578 43.56 74.6724 43.2187 73.9898 42.536C73.3071 41.8747 72.9657 41 72.9657 39.912C72.9657 38.9093 73.1898 37.8853 73.6378 36.84C74.1071 35.7947 74.9604 34.5893 76.1978 33.224C77.4564 31.88 79.2271 30.3333 81.5098 28.584L81.6058 27.848C81.7551 27.0587 81.9258 25.928 82.1178 24.456C81.6911 25.992 81.0938 27.1653 80.3258 27.976C79.5578 28.7653 78.7471 29.16 77.8938 29.16C76.9338 29.16 76.1444 28.7227 75.5258 27.848C74.9284 26.952 74.6298 25.8427 74.6298 24.52C74.6298 22.92 74.7364 21.4587 74.9498 20.136C75.1631 18.792 75.5151 17.3733 76.0058 15.88C76.2191 15.24 76.5178 14.7813 76.9018 14.504C77.2858 14.2267 77.8938 14.088 78.7258 14.088C79.1951 14.088 79.5151 14.1627 79.6858 14.312C79.8778 14.4613 79.9738 14.6853 79.9738 14.984C79.9738 15.1547 79.8564 15.7307 79.6218 16.712C79.4084 17.5013 79.2378 18.216 79.1098 18.856C78.9391 19.7307 78.7898 20.5733 78.6618 21.384C78.5338 22.1733 78.4698 22.824 78.4698 23.336C78.4698 24.1467 78.6938 24.552 79.1418 24.552C79.4618 24.552 79.8564 24.232 80.3258 23.592C80.8164 22.952 81.3284 21.9813 81.8618 20.68C82.4164 19.3787 82.9498 17.7787 83.4618 15.88C83.6324 15.24 83.8884 14.7813 84.2298 14.504C84.5924 14.2267 85.1258 14.088 85.8298 14.088ZM76.9978 40.456C77.5311 40.456 78.1284 39.8373 78.7898 38.6C79.4511 37.3627 80.1124 35.304 80.7738 32.424C79.1311 33.8107 77.9364 35.0693 77.1898 36.2C76.4644 37.352 76.1018 38.3547 76.1018 39.208C76.1018 39.5707 76.1658 39.8693 76.2938 40.104C76.4431 40.3387 76.6778 40.456 76.9978 40.456Z" fill="#00DFA2"/>
</svg>
