<svg width="80" height="80" viewBox="0 0 80 80" fill="none" xmlns="http://www.w3.org/2000/svg">
<g clip-path="url(#clip0_6970_276)">
<path d="M61.2501 -0.000488281H18.7501C8.39472 -0.000488281 6.10352e-05 8.39417 6.10352e-05 18.7495V61.2495C6.10352e-05 71.6049 8.39472 79.9995 18.7501 79.9995H61.2501C71.6054 79.9995 80.0001 71.6049 80.0001 61.2495V18.7495C80.0001 8.39417 71.6054 -0.000488281 61.2501 -0.000488281Z" fill="#F02E65"/>
<path fill-rule="evenodd" clip-rule="evenodd" d="M49.9828 60.2498C46.3078 60.2498 42.8628 59.2648 39.8981 57.5439C37.6734 58.8317 35.2012 59.6933 32.6062 60.0561C27.3213 60.7951 21.959 59.4045 17.6994 56.1901C15.5881 54.5992 13.811 52.6079 12.4697 50.3301C11.1284 48.052 10.2491 45.532 9.88201 42.9142C9.51498 40.2964 9.66742 37.6317 10.3306 35.0726C10.9938 32.5136 12.1547 30.1105 13.7471 28.0004C15.3395 25.8903 17.332 24.1146 19.6109 22.7749C21.8898 21.4352 24.4103 20.5576 27.0286 20.1924C29.6467 19.8273 32.3112 19.9815 34.8696 20.6465C36.6356 21.1055 38.3271 21.8016 39.8993 22.7129C42.864 20.9928 46.3084 20.0079 49.9828 20.0079C61.0956 20.0079 70.1037 29.0162 70.1037 40.1289C70.1037 51.2414 61.0956 60.2498 49.9828 60.2498ZM36.53 25.1657L36.5362 25.1604C33.7421 23.9067 30.6285 23.4497 27.547 23.8807C23.2378 24.4833 19.3443 26.7731 16.7233 30.2464C14.1023 33.7198 12.9684 38.0917 13.5711 42.4014C14.1737 46.7104 16.4635 50.6039 19.9368 53.2248C23.41 55.8458 27.7823 56.9798 32.0915 56.377C36.4009 55.7745 40.2943 53.4848 42.9153 50.0114C45.5362 46.5379 46.6703 42.1661 46.0675 37.8567C45.7896 35.8686 45.1525 33.9689 44.2056 32.242C42.4909 29.1269 39.7931 26.6289 36.53 25.1657Z" fill="white"/>
<path d="M30.3583 33.1671C30.3342 33.2265 30.0266 34.435 29.6952 35.8681C29.3515 37.3012 28.8066 39.5637 28.4992 40.9018C27.9064 43.3537 27.551 44.9646 27.551 45.1781C27.551 45.2368 27.9184 45.2846 28.3682 45.2846H29.1859L29.5525 43.6496C29.7662 42.7615 30.2402 40.724 30.6191 39.1253C30.9982 37.5259 31.4598 35.5837 31.6379 34.8015C31.8151 34.0196 31.9929 33.3096 32.0285 33.2265C32.0645 33.1203 31.8626 33.085 31.2468 33.085C30.7847 33.085 30.3816 33.1203 30.3583 33.1671ZM23.9974 38.2959L22.9077 39.4806L23.2278 39.8593C23.4049 40.0725 23.8911 40.6059 24.3057 41.044L25.0637 41.8493H27.2195L26.2011 40.7475C25.6439 40.1559 25.1819 39.5871 25.1819 39.5162C25.1819 39.4334 25.6087 38.9006 26.1299 38.3318C26.6508 37.7518 27.0773 37.2537 27.0773 37.1943C27.0773 37.1471 26.6272 37.1115 26.0825 37.1115H25.0994L23.9974 38.2959ZM32.2888 37.1825C32.2888 37.2184 32.4904 37.4431 32.7385 37.6918C33.6632 38.6159 34.3145 39.3981 34.2788 39.5515C34.2554 39.6346 33.8048 40.1909 33.2604 40.7715L32.2776 41.8493H33.3788L34.4804 41.8375L35.4867 40.7362C36.0438 40.1206 36.4938 39.575 36.4938 39.504C36.4938 39.4453 36.0201 38.8884 35.4276 38.2609L34.362 37.1115H33.331C32.7507 37.1115 32.2888 37.1471 32.2888 37.1825Z" fill="white"/>
</g>
<defs>
<clipPath id="clip0_6970_276">
<rect width="80" height="80" fill="white" transform="translate(0 -0.000488281)"/>
</clipPath>
</defs>
</svg>
