<svg width="80" height="80" viewBox="0 0 80 80" fill="none" xmlns="http://www.w3.org/2000/svg">
<g clip-path="url(#clip0_7092_183)">
<path d="M80 61.9599C78.8357 62.4003 77.5505 62.3993 76.3868 61.9572C75.2231 61.5151 74.2615 60.6623 73.6834 59.5599L62.1834 43.6566L60.5167 41.4332L47.1734 59.5799C46.63 60.6361 45.7205 61.4582 44.615 61.8925C43.5096 62.3269 42.2837 62.3437 41.1667 61.9399L58.36 38.8732L42.3667 18.0366C43.5167 17.6222 44.7744 17.6167 45.9279 18.021C47.0815 18.4254 48.0605 19.2149 48.7 20.2566L60.62 36.3566L72.6067 20.3232C73.1543 19.2859 74.064 18.4859 75.1628 18.0753C76.2617 17.6648 77.4731 17.6724 78.5667 18.0966L72.36 26.3332L63.9534 37.2766C63.7199 37.4848 63.5331 37.7401 63.4052 38.0256C63.2773 38.3111 63.2112 38.6204 63.2112 38.9332C63.2112 39.2461 63.2773 39.5554 63.4052 39.8409C63.5331 40.1264 63.7199 40.3817 63.9534 40.5899L79.9667 61.9632L80 61.9599ZM0.00670665 38.5866L1.40671 31.6699C5.25337 17.9932 20.9334 12.3032 31.72 20.7699C38.0367 25.7332 39.6134 32.7599 39.3034 40.6799H3.72004C3.14337 54.8232 13.35 63.3632 26.4 58.9999C28.5156 58.2384 30.4092 56.964 31.9112 55.291C33.4133 53.6179 34.4769 51.5983 35.0067 49.4132C35.6967 47.1932 36.8334 46.8132 38.92 47.4532C38.5723 50.1612 37.6151 52.755 36.1203 55.0396C34.6255 57.3243 32.6321 59.2402 30.29 60.6432C26.4214 62.7593 21.9828 63.5981 17.6088 63.0395C13.2348 62.4809 9.14937 60.5536 5.93671 57.5332C2.76014 53.9579 0.840294 49.4416 0.47004 44.6732C0.47004 43.8899 0.203373 43.1566 0.0233733 42.4532C0.00714676 41.1655 -0.00063119 39.8777 3.99876e-05 38.5899L0.00670665 38.5866ZM3.76337 37.6332H35.9434C35.7434 27.3799 29.2734 20.1066 20.6434 20.0399C11.0367 19.9066 4.16337 27.0199 3.74004 37.5866L3.76337 37.6332Z" fill="#EEF7FF"/>
</g>
<defs>
<clipPath id="clip0_7092_183">
<rect width="80" height="80" fill="white"/>
</clipPath>
</defs>
</svg>
